# xmcd CD database file
#
# Track frame offsets:
#	150
#	21478
#	41043
#	61773
#	87553
#	107998
#	135851
#	147486
#	171540
#	185446
#	204976
#	220282
#	238781
#	256036
#	280339
#	301741
#
# Disc length: 4275 seconds
#
# Revision: 1
# Processed by: cddbd v1.5.1PL0 Copyright (c) Steve Scherf et al.
# Submitted via: CDex 1.51
#
DISCID=ed10b110
DTITLE=temba dj - la noche cubana 21
DYEAR=1900
DGENRE=Salsa
TTITLE0=cubanismo - marie laveaux
TTITLE1=los del caney - el platanal de bartolo
TTITLE2=pachito alonso y sus kini kini- la habana me queda chiquita
TTITLE3=charanga habanera - marina quiere bailar
TTITLE4=raquel zozaya - soy guajiro
TTITLE5=la banda del puerto - son montuno
TTITLE6=la sonora de zozaja - soy guajiro
TTITLE7=la banda del puerto - son montuno
TTITLE8=la nueva sonora mantacera - pa la paloma
TTITLE9=dj laz - ki ki ri bu (A.T.'S tropical mix)
TTITLE10=los del caney - el dulcerito
TTITLE11=haila - una manera mejor
TTITLE12=la nueva sonora mantacera - yo soy el punto cubano
TTITLE13=edwin serrano - mi havana
TTITLE14=pio leiva - anabacoa
TTITLE15=haila - sobre una tumba una rumba
EXTD=
EXTT0=
EXTT1=
EXTT2=
EXTT3=
EXTT4=
EXTT5=
EXTT6=
EXTT7=
EXTT8=
EXTT9=
EXTT10=
EXTT11=
EXTT12=
EXTT13=
EXTT14=
EXTT15=
PLAYORDER=
